<svg xmlns="http://www.w3.org/2000/svg" xmlns:xlink="http://www.w3.org/1999/xlink" width="259.724" height="35.172" viewBox="0 0 259.724 35.172">
  <defs>
    <clipPath id="clip-path">
      <rect id="Rectangle_142" data-name="Rectangle 142" width="259.724" height="35.172" fill="none"/>
    </clipPath>
  </defs>
  <g id="Group_46" data-name="Group 46" transform="translate(0 0)">
    <path id="Path_225" data-name="Path 225" d="M26.5.84,16.189,28.158,5.878.84H0L13.346,35.048h5.637L32.378.84Z" transform="translate(0 -0.358)" fill="#f4f4f4"/>
    <g id="Group_45" data-name="Group 45" transform="translate(0 0)">
      <g id="Group_44" data-name="Group 44" clip-path="url(#clip-path)">
        <path id="Path_226" data-name="Path 226" d="M65.2,17.586a17.49,17.49,0,1,1,34.98,0,17.49,17.49,0,1,1-34.98,0m17.49,12.383c6.36,0,11.9-4.866,11.9-12.383S89.052,5.2,82.692,5.2s-11.9,4.866-11.9,12.383,5.541,12.383,11.9,12.383" transform="translate(-27.769 0)" fill="#f4f4f4"/>
        <path id="Path_227" data-name="Path 227" d="M142.908.839h5.444v29.15h14.117v5.059H142.908Z" transform="translate(-60.862 -0.357)" fill="#f4f4f4"/>
        <path id="Path_228" data-name="Path 228" d="M192.837.839h5.444V17.847L212.591.839h6.167L205.509,16.5l14.406,18.55h-6.071l-11.611-14.7-3.951,4.674V35.048h-5.444Z" transform="translate(-82.126 -0.357)" fill="#f4f4f4"/>
        <path id="Path_229" data-name="Path 229" d="M254.6.839h6.022l12.141,27.222L284.952.839h6.022V35.048H285.53V11.439h-.241l-10.5,23.609h-4.047L260.283,11.439h-.241V35.048H254.6Z" transform="translate(-108.429 -0.357)" fill="#f4f4f4"/>
        <path id="Path_230" data-name="Path 230" d="M351.119.839l13.394,34.208h-5.878l-2.65-6.986H340.664l-2.65,6.986h-5.878L345.482.839ZM354.106,23,348.324,7.729,342.543,23Z" transform="translate(-141.452 -0.357)" fill="#f4f4f4"/>
        <path id="Path_231" data-name="Path 231" d="M402.792.839h5.444l17.345,25.2h.241V.839h5.444V35.048h-5.493l-17.3-25.2h-.241v25.2h-5.444Z" transform="translate(-171.543 -0.357)" fill="#f4f4f4"/>
      </g>
    </g>
  </g>
</svg>
