<svg id="Group_36" data-name="Group 36" xmlns="http://www.w3.org/2000/svg" xmlns:xlink="http://www.w3.org/1999/xlink" width="243.371" height="44.345" viewBox="0 0 243.371 44.345">
  <defs>
    <clipPath id="clip-path">
      <rect id="Rectangle_133" data-name="Rectangle 133" width="243.371" height="44.345" fill="#fff"/>
    </clipPath>
  </defs>
  <path id="Path_199" data-name="Path 199" d="M349.256.141l-6.6,14.737L336.084.141h-3.261V18.661h2.948V5.88h.13l5.66,12.781h2.191L349.439,5.88h.13V18.661h2.947V.141Z" transform="translate(-229.379 -0.097)" fill="#fff"/>
  <path id="Path_200" data-name="Path 200" d="M419.125,3.871l3.13,8.269h-6.26ZM417.586.141,410.361,18.66h3.182l1.435-3.782h8.294l1.434,3.782h3.183L420.638.141Z" transform="translate(-282.818 -0.097)" fill="#fff"/>
  <g id="Group_35" data-name="Group 35">
    <g id="Group_34" data-name="Group 34" clip-path="url(#clip-path)">
      <path id="Path_201" data-name="Path 201" d="M487.3,12.323h-3.339v6.338h-2.947V.142h6.26c3.912,0,6.417,2.5,6.417,6.182a5.567,5.567,0,0,1-3.626,5.53l4.434,6.808h-3.156Zm-.365-2.582c2.269,0,3.756-1.043,3.756-3.417s-1.487-3.443-3.756-3.443h-2.973v6.86Z" transform="translate(-331.514 -0.098)" fill="#fff"/>
      <rect id="Rectangle_132" data-name="Rectangle 132" width="2.947" height="18.519" transform="translate(167.656 0.044)" fill="#fff"/>
      <path id="Path_202" data-name="Path 202" d="M563.925,16.261l1.878-1.9a3.682,3.682,0,0,0,3.078,1.722c1.3,0,3.13-.652,3.13-3.678V.141h2.947v12.65c0,4.486-3.026,6.13-5.947,6.13a5.637,5.637,0,0,1-5.086-2.661" transform="translate(-388.653 -0.097)" fill="#fff"/>
      <path id="Path_203" data-name="Path 203" d="M621.363.142l7.251,18.519h-3.182L624,14.879H615.7l-1.435,3.782h-3.182L618.311.142Zm1.617,12-3.13-8.268-3.13,8.268Z" transform="translate(-421.156 -0.098)" fill="#fff"/>
      <path id="Path_204" data-name="Path 204" d="M330.64,82.254h3.182L339.4,97.044l5.582-14.789h3.182l-7.251,18.519h-3.052Z" transform="translate(-227.875 -56.689)" fill="#fff"/>
      <path id="Path_205" data-name="Path 205" d="M395.841,90.936a9.469,9.469,0,1,1,9.469,9.52,9.3,9.3,0,0,1-9.469-9.52m9.469,6.7a6.709,6.709,0,1,0-6.443-6.7,6.421,6.421,0,0,0,6.443,6.7" transform="translate(-272.811 -56.111)" fill="#fff"/>
      <path id="Path_206" data-name="Path 206" d="M473.547,82.254h2.947V98.035h7.642v2.739h-10.59Z" transform="translate(-326.366 -56.689)" fill="#fff"/>
      <path id="Path_207" data-name="Path 207" d="M523.477,82.254h2.947v9.208l7.747-9.208h3.339l-7.173,8.477,7.8,10.042h-3.286l-6.286-7.956-2.139,2.53v5.425h-2.947Z" transform="translate(-360.777 -56.689)" fill="#fff"/>
      <path id="Path_208" data-name="Path 208" d="M585.237,82.254h3.26l6.573,14.737,6.6-14.737h3.26v18.519h-2.947V87.993h-.131l-5.686,12.781h-2.191l-5.66-12.781h-.13v12.781h-2.948Z" transform="translate(-403.342 -56.689)" fill="#fff"/>
      <path id="Path_209" data-name="Path 209" d="M673.052,82.254l7.251,18.519h-3.182l-1.435-3.782h-8.295l-1.435,3.782h-3.182L670,82.254Zm1.617,12-3.13-8.268-3.13,8.268Z" transform="translate(-456.78 -56.689)" fill="#fff"/>
      <path id="Path_210" data-name="Path 210" d="M733.432,82.254h2.947l9.39,13.642h.13V82.254h2.947v18.519h-2.974L736.51,87.132h-.131v13.642h-2.947Z" transform="translate(-505.476 -56.689)" fill="#fff"/>
      <path id="Path_211" data-name="Path 211" d="M64.019,0,41.434,31.545,18.848,0H0L31.289,44.1h20.29L82.867,0Z" transform="translate(0 0)" fill="#fff"/>
      <path id="Path_212" data-name="Path 212" d="M13.849,69.816,0,50.3V78.762h13.85Z" transform="translate(0 -34.664)" fill="#fff"/>
      <path id="Path_213" data-name="Path 213" d="M222.061,69.816v8.945h13.85V50.3Z" transform="translate(-153.043 -34.664)" fill="#fff"/>
    </g>
  </g>
</svg>
